<?xml version="1.0" encoding="UTF-8"?><svg id="Layer_1" xmlns="http://www.w3.org/2000/svg" viewBox="0 0 204.37 207.42"><defs><style>.cls-1{fill:#fff;}.cls-2{fill:#f36300;}</style></defs><path class="cls-2" d="m112.72,10.31c7.72.1,25.45-2.9,30.94-2.57,16.01.96,43.5,18.25,46.81,51.83,1.55,15.68,16.64,14.93,13.47,48.87-4.03,43.09-36.2,71.91-57.8,78.8-15.71,5.01-25.02,19.17-37.87,20.07-11.45.8-21.94-2.8-29.91-11.19C54.38,170.9,8.8,176.8.5,127.55c-4.05-24,17.87-38.73,20.08-62.04.65-6.85,2.37-57.05,46.83-65.12,15.04-2.73,33.54,9.77,45.31,9.92Z"/><circle class="cls-2" cx="102.76" cy="99.26" r="86.9"/><path class="cls-1" d="m102.76,187.28c-48.54,0-88.03-39.49-88.03-88.03S54.22,11.23,102.76,11.23s88.03,39.49,88.03,88.03-39.49,88.03-88.03,88.03Zm0-173.8c-47.29,0-85.77,38.48-85.77,85.77s38.48,85.77,85.77,85.77,85.77-38.48,85.77-85.77S150.05,13.49,102.76,13.49Z"/><circle class="cls-2" cx="102.76" cy="99.26" r="74.43"/><path class="cls-1" d="m102.76,174.11c-41.27,0-74.85-33.58-74.85-74.85S61.49,24.41,102.76,24.41s74.85,33.58,74.85,74.85-33.58,74.85-74.85,74.85Zm0-148.86c-40.81,0-74,33.2-74,74s33.2,74,74,74,74-33.2,74-74S143.57,25.25,102.76,25.25Z"/><circle class="cls-2" cx="102.76" cy="99.26" r="71.07"/><path class="cls-1" d="m102.76,170.75c-39.42,0-71.49-32.07-71.49-71.49S63.34,27.77,102.76,27.77s71.49,32.07,71.49,71.49-32.07,71.49-71.49,71.49Zm0-142.14c-38.96,0-70.65,31.69-70.65,70.65s31.69,70.65,70.65,70.65,70.65-31.69,70.65-70.65S141.72,28.61,102.76,28.61Z"/><path class="cls-1" d="m132.64,134.85c-1.03,1.88-5.45,6.12-9.05,5.22-3.82-.95-4.93-12.24-4.93-20.67,0-10.26-11.28-16.91-20.97-17.08,6.66-3.1,33.94-20.53,39.08-33.14.36-.88-3.3-.37-3.67.44-7.09,15.69-29.07,27.04-35.11,30.72,3.33-17.16,5.9-34.92,5.34-36.2-2.03-4.62-11.73-8.12-11.55-5.24,1.25,20.16-3.57,44.95-3.57,44.95-4.27,2.45-19.2,17.21-19.47,26.5-.19,6.62,3.96,12.94,12,12.36,6.83-.49,12.68-19.98,16.62-39.24,1.76-.04,13.13.39,13.13,17.43,0,9.89,2,24.24,11.84,24.24,6.76,0,10.11-5.98,10.75-10.14.04-.27-.32-.39-.46-.15Zm-55.87,2.79c-3.1.2-6.34-3.5-5.39-9.4,1.55-9.59,14.25-20.59,16.35-21.88,0,0-5.54,30.94-10.96,31.29Z"/></svg>