<?xml version="1.0" encoding="utf-8"?>
<!-- Generator: Adobe Illustrator 27.4.1, SVG Export Plug-In . SVG Version: 6.00 Build 0)  -->
<svg version="1.1" id="Layer_1" xmlns="http://www.w3.org/2000/svg" xmlns:xlink="http://www.w3.org/1999/xlink" x="0px" y="0px"
	 viewBox="0 0 337.7 65.2" style="enable-background:new 0 0 337.7 65.2;" xml:space="preserve">
<style type="text/css">
	.st0{enable-background:new    ;}
	.st1{fill:#F36300;}
</style>
<g id="Group_13" transform="translate(-382.068 -182.095)">
	<g class="st0">
		<path class="st1" d="M409.6,185.3c-0.6,2.2-6.2,12.3-10.4,21.4c4.2-3,10.9-8.2,17.4-13c7.5-5.6,14.8-10.7,17.7-11.2
			c3-0.4,2.9,3,1.8,4c-3.6,0.1-10.9,5-18.1,10.2c-6,4.4-12.1,9.1-15.8,11.5c1.9-0.1,3.8,0.1,5.2,1c2.9,1.8,5.2,5.5,7.2,9.4
			c3.5,6.8,6.2,14.3,9.8,13.7c0.6,0.6-3,4.1-6.5,3.8c-3.5-0.3-6.1-7.8-9.1-14.7c-1.9-4.5-4-8.7-6.6-10.3c-1.7-1.1-3.5-0.7-4.9,0.1
			c-2,5.1-9.2,21.9-9.1,25.1c-2.6,1.4-6.7-1.4-6.1-3.5c1.2-4.3,6.4-17.4,9-22.9c3.7-8.2,11.1-24.7,11.5-27.1
			C404,180.9,409.8,183.2,409.6,185.3z"/>
		<path class="st1" d="M446.1,210.4c1.5,1.2,2.7,2.8,2.2,3.5c-1.1,1.4-1.7,2.4-3.3,6c-1.9,4.3-2.7,6.9-1.2,6.8
			c2.4-0.2,12.3-11.9,14-14.8c0.9-1.4,2.8-0.8,1.9,0.9c-1.7,3.2-8.4,13-12.6,15.8c-3.5,2.4-7.1,0.4-9.1-1.7c-1.3-1.3-0.6-5.3,0.6-8
			c-2,3-6.3,9.1-10.1,11c-1.9,1-7.6-2.5-8-5c-0.6-3.3,2.4-10.7,7.5-16.3c5.3-5.9,9.5-7.6,12.8-8.4c3.7-0.8,11.5,4.5,10.5,7
			C450.6,208.9,447.7,210.2,446.1,210.4z M445,209.7c0.3-1.5,2.2-5,1.1-6c-1.2-1-8,2.7-12.5,8.7c-6.7,8.9-7.7,13.8-6.8,14.1
			c1.7,0.6,13-12,15.8-17C442.9,208.9,443.9,209.1,445,209.7z"/>
		<path class="st1" d="M471.1,204.3c2.3,0.2,5.5,2.4,3.1,5.4c-3.6,4.8-8.4,16.2-6.6,16.8c1.8,0.6,11.8-11,14.3-14.8
			c1.2-1.4,2.4-0.6,1.9,0.9c-1.7,3.9-8.6,12.6-12.9,15.9c-3,2.2-9.3,0.2-9.9-4c-0.9-5.4,4.8-14.1,6.3-16.8c0.7-1.2-0.7-1.6-2.5-1.9
			c-1.5,2.7-5.2,7.5-7.7,11.2c-1.1,1.4-2.7,0.1-2.4-0.9c1.9-2.6,5.5-8.1,7-10.9c-0.9-0.2-1.5-0.6-1.7-1.2c-0.8-2.3,2.5-8.7,4.2-9.4
			c1.9-0.8,4.7,1.3,4.5,2.7c-0.2,1.3-2,5-3.1,6.7C465.6,204.3,467.9,204,471.1,204.3z"/>
		<path class="st1" d="M485,219.6c-0.4,1.2-0.6,2.2-0.6,3.2c-0.1,2,0.4,4.2,2.7,4.5c6.4,0.6,15.3-11.8,18.4-15.8
			c0.8-0.9,2.8-0.9,2.2,0.7c-2.3,4.6-8.8,14-15,17.2c-5,2.6-12.2-0.6-14-5.5c-2.8-7.4,5.6-19.8,11.7-22.5c5.3-2.4,12,3,11.1,6.9
			C500.7,211.9,490.8,217.2,485,219.6z M486.6,215.9c3.9-2.4,8-6,9.9-8.5c2-2.6,0.4-3.7-2.2-1.4C491.9,208.2,488.6,212,486.6,215.9z
			"/>
		<path class="st1" d="M508.2,218.9c0,0,10.5-14.3,16.1-16c3-0.9,7.7,1.7,6.5,5.3c-2.1,5.8-9.9,19-6.5,18.6
			c2.1-0.2,9.8-8.4,14.1-15.1c1.2-1,2.1,0.1,1.7,1.3c-3.3,6.1-8.9,12.9-12.8,15.6c-3.8,2.7-10.2-0.4-10-4.6
			c0.4-6.9,8.4-17.1,7.1-17.2c-3-0.3-18.4,19.5-19.2,21.7c-1.7,1.7-7.3-0.8-6.6-2.8c0.6-2,9.4-19,10.1-22.4c1.7-1.2,5.6,0.9,5.4,2.7
			C513.7,208.4,508.2,218.9,508.2,218.9z"/>
		<path class="st1" d="M563,205.8c-9.3,16.2-7.2,27.6-0.6,27.4c8.6-0.1,21.6-15.5,26.1-21.7c1.2-1.3,2.6-0.2,1.9,1.2
			c-2,4.3-12.7,18.6-20.2,22.5c-5.8,3-12.7,0.6-16.4-2.7c-4.4-3.8-6.3-11.7,0.2-24.9c7.7-15.6,19.9-25,25-25.4
			c3.9-0.4,14,4.2,11.9,8.6c-2.7,5.1-6.3,7.5-8.1,8.9c-1.6,1.3-3.9,0.8-2.5-1.1c1.4-2.1,7.1-10.8,5.6-12.2
			C581.4,182.2,568,197.1,563,205.8z"/>
		<path class="st1" d="M599.4,202.7c-4.9,10.1-7.5,14.8-7.8,15.5c1.1-1.4,12-15,15.8-16.1c3.5-0.9,7.6,3.5,6.7,6.1
			c-2,5.6-8.1,17.9-6.2,18.6c1.5,0.5,10.6-9.9,14-15.3c1.4-1.2,2.3,0,1.7,1.3c-3,5.4-8.5,13.1-12,15.8c-4.1,3.2-10.1-0.5-10.4-3.9
			c-0.6-6.7,7.1-17.9,6.3-18.4c-2.7-1.4-18.4,19.9-19.2,22c-2.4,2.4-7.4-0.2-6.8-2.5c0.9-3.1,4.9-11.4,11.2-24.1
			c3.7-7.7,7.4-15.3,7.6-16.5c1.4-1.1,6.2,1.4,6,3.2C606.1,190.5,604.4,192.3,599.4,202.7z"/>
		<path class="st1" d="M641.8,210.4c1.5,1.2,2.7,2.8,2.2,3.5c-1.1,1.4-1.7,2.4-3.3,6c-1.9,4.3-2.7,6.9-1.2,6.8
			c2.4-0.2,12.3-11.9,14-14.8c0.9-1.4,2.8-0.8,1.9,0.9c-1.7,3.2-8.4,13-12.6,15.8c-3.5,2.4-7.1,0.4-9.1-1.7c-1.3-1.3-0.6-5.3,0.6-8
			c-2,3-6.3,9.1-10.1,11c-1.9,1-7.6-2.5-8-5c-0.6-3.3,2.4-10.7,7.5-16.3c5.3-5.9,9.5-7.6,12.8-8.4c3.7-0.8,11.5,4.5,10.5,7
			C646.3,208.9,643.4,210.2,641.8,210.4z M640.7,209.7c0.3-1.5,2.2-5,1.1-6c-1.2-1-8,2.7-12.5,8.7c-6.7,8.9-7.7,13.8-6.8,14.1
			c1.7,0.6,13-12,15.8-17C638.6,208.9,639.6,209.1,640.7,209.7z"/>
		<path class="st1" d="M656.3,218.9c0,0,10.5-14.3,16.1-16c3-0.9,7.7,1.7,6.5,5.3c-2.1,5.8-9.9,19-6.5,18.6
			c2.1-0.2,9.8-8.4,14.1-15.1c1.2-1,2.1,0.1,1.7,1.3c-3.3,6.1-8.9,12.9-12.8,15.6c-3.8,2.7-10.2-0.4-10-4.6
			c0.4-6.9,8.4-17.1,7.1-17.2c-3-0.3-18.4,19.5-19.2,21.7c-1.7,1.7-7.3-0.8-6.6-2.8c0.6-2,9.4-19,10.1-22.4c1.7-1.2,5.6,0.9,5.4,2.7
			C661.9,208.4,656.3,218.9,656.3,218.9z"/>
		<path class="st1" d="M701.8,226.4c1.7-0.9,3.4-2,4.8-3.2c5.5-4.5,8.5-9.9,10.2-11.9c1.4-1.5,2.6-0.5,2.1,1.1
			c-1.2,1.9-4.8,8.6-11.4,13.8c-2.2,1.7-4.9,3.1-7.8,4.5c-4.5,8.6-10.9,16.5-17.9,16.6c-5.9,0.1-9.2-3.4-8.9-5.8
			c0.4-2.8,5.8-5.3,10.1-7.2c3-1.3,6.6-2.4,10.2-3.9c1.5-2.8,2.6-5.5,3.7-8.1c-2.2,2.8-4.9,5.4-7.7,6.9c-2.6,1.4-6.4-2.1-7.2-4.5
			c-0.9-2.6,0.8-7.6,4.1-12.9c3-4.9,6.5-8.4,9.6-10.1c8.1-4.6,15.3,2.2,15.2,5c-0.1,2.4-3.6,4.5-5.5,4.9c1.4,0.6,2.5,1.6,2.6,2.2
			c-0.8,0.6-1.1,0.6-5.3,10.9C702.2,225.3,702,225.9,701.8,226.4z M690.6,234.4c-2.7,1-5,1.9-6.7,2.7c-12.9,5.9-6.6,7.1-5.3,7
			c1.2-0.1,5.3-0.9,9.6-6.4C689.1,236.6,689.9,235.5,690.6,234.4z M699.4,215.6c0.3-0.7,0.8-1.6,1.5-3c0.6-1.3,1.9-1.6,3.2-1.4
			c0.4-1.3,3.7-6,2.2-7.5c-2.7-2.7-10.9,5.6-13.8,10.2c-4.2,6.7-6.3,12.4-5,12.5C688.7,226.5,695.6,220.6,699.4,215.6z"/>
	</g>
</g>
</svg>
