<?xml version="1.0" encoding="UTF-8"?><svg id="Layer_1" xmlns="http://www.w3.org/2000/svg" xmlns:xlink="http://www.w3.org/1999/xlink" viewBox="0 0 191 176"><defs><style>.cls-1{fill:none;}.cls-2{clip-path:url(#clippath);}.cls-3{fill:#f36300;}</style><clipPath id="clippath"><rect class="cls-1" width="191" height="176"/></clipPath></defs><g class="cls-2"><path class="cls-3" d="m114.97,87.36h-35.56l4.37-4.37c.39-.39.39-1.02,0-1.41s-1.02-.39-1.41,0l-6.07,6.07c-.09.09-.17.2-.22.33-.05.12-.08.25-.08.38h0c0,.13.03.26.08.38.05.11.11.2.19.29.01.01.01.03.02.04l6.08,6.07c.2.2.45.29.71.29s.51-.1.71-.29c.39-.39.39-1.02,0-1.41l-4.37-4.37h35.56c.55,0,1-.45,1-1s-.45-1-1-1h0Z"/></g></svg>