<?xml version="1.0" encoding="UTF-8"?><svg id="Layer_1" xmlns="http://www.w3.org/2000/svg" viewBox="0 0 248.87 54.21"><defs><style>.cls-1{fill:#f36300;}</style></defs><path class="cls-1" d="m34.59,28.56c-3.31.07-7.27.22-10.66.43-2.09.14-4.1.36-5.98.65-7.06,9.22-13.83,19.15-15.19,22.47-1.3,1.8-3.02.29-2.74-1.87.36-2.59,5.98-11.23,12.31-19.51-3.96.94-6.77,2.09-7.85,3.17-1.37.65-1.87-1.94-.22-3.1,1.87-1.22,5.76-2.66,10.87-3.74l3.53-4.25C26.53,13.51,35.6,3.72,39.06,1.05c-.36-1.15,7.92-2.02,8.5,1.08.65,3.53-2.45,11.74-4.75,23.55-.07.22-.14.43-.14.65,1.01,1.15.79,2.95-.58,2.59-1.66,7.13-4.54,18.58-.86,19.3,1.3.22.72,1.51.07,1.8-2.3.5-8.71-1.37-9-7.27-.14-2.95.94-8.28,2.3-14.19Zm5.62-24.48c-3.02,3.1-10.23,10.66-16.63,18.51l-2.88,3.6,3.67-.43c4.1-.29,7.92-.43,11.02-.5,2.02-8.28,4.39-16.99,4.82-21.17Z"/><path class="cls-1" d="m46.54,40.01c1.15-2.74,3.1-9.43,10.37-23.47,3.96-7.63,7.27-12.89,8.28-15.7,2.23-.94,5.11.36,5.11,2.38,0,1.44-4.75,9.86-7.49,15.12-4.82,8.93-7.42,14.19-7.7,14.69.5-.79,6.62-10.87,12.89-14.04,3.67-1.87,8.93,1.87,9.15,4.25.29,4.32-4.97,14.19-10.87,19.15.86-.29,1.8-.65,2.81-1.08,4.03-1.8,11.74-10.44,14.11-14.04,1.15-1.73,2.38,0,1.8,1.15-1.73,3.46-8.64,11.95-14.04,14.69-4.25,2.09-8.78,2.52-11.95,2.23-2.88-.22-5.4-1.3-6.98-2.3l-.29.5c-1.37,2.88-5.9-1.66-5.18-3.53Zm6.62,1.01c.86.86,2.02,1.44,3.96,1.15,5.47-.86,16.13-20.45,12.6-20.95-3.31-.5-12.74,13.61-16.56,19.8Z"/><path class="cls-1" d="m99.25,20.14c2.52.14,5.33,1.51,5.18,5.54-.07,2.3-1.94,7.49-4.97,12.1,5.47-.58,11.52-10.22,12.31-11.3.79-1.22,2.38-.58,1.66.94-.72,1.15-4.03,8.35-9.58,11.59-1.94,1.15-4.18,1.66-6.26,1.44-1.94,2.45-4.25,4.46-6.62,5.47-4.68,1.87-12.03-2.95-12.53-8.28-.79-8.06,6.34-20.52,13.68-21.39,2.59-.29,6.34,1.73,7.06,3.38.07.29.14.43.07.5Zm-10.51,6.26c-2.74,4.25-4.82,9.87-4.61,14.55.22,3.67,2.66,2.38,4.25,1.22,1.3-.94,2.81-2.3,4.18-3.89-.43-.43-.79-.86-1.15-1.44-1.66-2.45-1.73-5.4-1.01-8.14.79-3.1,3.89-8.35,7.99-8.57-4.32-.72-7.2,2.45-9.65,6.26Zm5.62,9.72c2.95-3.82,5.4-8.42,5.76-12.39.22-2.23-2.38-1.73-4.46,1.22-2.45,3.46-3.46,8.5-1.3,11.16Z"/><path class="cls-1" d="m111.56,42.1c2.3.36,19.15-20.88,19.51-22.03,1.15-1.15,6.7.5,5.33,3.1-1.58,2.38-9.79,18.36-7.34,19.15,1.8.58,12.03-11.38,14.4-15.12,1.22-1.3,2.16-.22,1.73,1.22-1.58,2.81-9.79,15.55-13.9,16.49-3.82.86-7.85-2.16-8.42-4.61-.65-2.81.5-5.47.94-6.77-.79,1.08-5.54,8.42-10.58,11.16-3.02,1.66-8.57-1.37-7.99-5.47,1.08-7.13,10.58-19.3,10.73-21.31,1.01-1.44,6.26.94,5.76,2.95-.5,2.09-12.75,20.81-10.15,21.24Z"/><path class="cls-1" d="m153.25,17.76c2.95,0,5.4.14,5.76.5.79,1.01.14,2.38-1.01,2.3-.5-.22-3.1-.36-6.05-.36l-1.22,2.74c-4.03,9.43-8.28,19.15-4.54,19.66,2.23.29,7.99-6.12,10.3-9.65.65-.5,1.15.14,1.15.86-.43,2.66-3.02,8.78-6.62,10.94-2.45,1.44-11.66-.72-12.46-5.11-.65-3.38,1.3-9.07,6.48-19.37-1.58.07-2.81.07-3.17.07-1.44,0-1.22-2.02.29-2.59.43.14,2.09.14,4.1.07,4.39-8.5,6.55-11.59,6.98-13.39,2.3-.79,5.62,1.8,5.26,3.38-.36,1.51-2.88,5.47-5.26,9.94Z"/><path class="cls-1" d="m195.94,39.51s4.03-5.33,10.87-13.9c11.23-14.11,17.5-20.52,19.51-22.39,2.09-1.94,5.76-.29,6.41,2.38-3.75,5.62-16.35,32.04-17.64,40.32-.22,1.15-1.01,6.7,1.15,6.7.72.65-.14,1.51-1.58,1.58-4.9.29-7.27-4.61-6.26-9.79,2.3-11.59,10.66-26.14,12.53-30.46-1.8,1.44-7.92,8.21-12.53,14.69-6.34,8.86-11.95,16.56-13.39,18.51-1.22,1.58-6.26,1.94-6.7-1.58-.07-3.17,3.24-22.83,3.82-34.2-2.16,3.89-4.9,9.22-8.14,16.06-5.33,10.87-10.73,22.68-10.8,24.19-1.3.94-4.32.22-3.6-2.3,1.3-4.46,7.85-17.35,10.58-22.9,2.3-4.9,10.01-20.23,11.74-23.62,0-.94,6.84-.58,7.49,3.17.65,3.74-3.46,33.56-3.46,33.56Z"/><path class="cls-1" d="m232.3,35.04c-.36,1.15-1.01,3.02-1.01,4.03-.14,2.88,1.58,4.46,3.38,4.39,2.81-.14,8.07-5.26,11.02-9.07.79-.86,1.51-.14,1.58.72-1.37,3.96-5.4,8.78-8.06,10.15-4.54,2.3-11.38-1.01-13.25-5.98-2.81-7.42,5.62-19.8,11.74-22.54,5.33-2.38,11.95,2.95,11.09,6.91-.79,3.67-10.66,8.93-16.49,11.38Zm1.58-3.67c3.89-2.45,7.99-6.05,9.87-8.5,2.02-2.59.43-3.74-2.23-1.37-2.3,2.09-5.54,5.9-7.63,9.86Z"/></svg>