<?xml version="1.0" encoding="UTF-8"?><svg id="Layer_1" xmlns="http://www.w3.org/2000/svg" viewBox="0 0 547.73 68.69"><defs><style>.cls-1{fill:#7e341b;}</style></defs><path class="cls-1" d="m35.02,12.02l5.9,21.53,9-28.37c.79-2.45,3.96-3.74,6.55-3.02,2.74.79,4.25,3.89,3.38,6.41l-13.39,39.68c-.79,2.45-2.59,4.03-4.9,4.03h-.72c-2.38,0-4.32-1.66-4.97-4.03l-5.83-22.39-5.83,22.39c-.65,2.38-2.59,4.03-4.97,4.03h-.72c-2.3,0-4.1-1.58-4.9-4.03L.24,8.57C-.62,6.05.89,2.95,3.63,2.16c2.59-.72,5.76.58,6.55,3.02l9,28.37,5.9-21.53c.58-2.16,2.23-3.46,4.75-3.46h.43c2.52,0,4.18,1.3,4.75,3.46Z"/><path class="cls-1" d="m87.94,23.19c-.36,2.52-2.74,3.67-4.97,3.67-.72,0-1.8-.07-2.45-.07-5.62,0-7.49,4.32-7.63,12.75v8.28c0,2.52-2.3,4.46-5.04,4.46s-4.97-2.02-5.04-4.46v-25.42c.07-2.45,2.38-4.46,5.04-4.46s5.04,1.94,5.04,4.46v3.67c1.87-6.26,5.4-8.42,8.86-8.42s6.84.79,6.19,5.54Z"/><path class="cls-1" d="m97.59,0c3.38,0,6.12,2.52,6.12,5.83s-2.74,5.9-6.12,5.9-6.26-2.59-6.26-5.9,2.88-5.83,6.26-5.83Zm5.04,47.81c0,2.52-2.3,4.46-5.04,4.46s-4.97-2.02-5.04-4.46v-25.42c.07-2.45,2.38-4.46,5.04-4.46s5.04,1.94,5.04,4.46v25.42Z"/><path class="cls-1" d="m114.07,18.29v-8.78c.07-2.45,2.38-4.46,5.04-4.46s5.04,1.94,5.04,4.46v8.78h3.82c2.02,0,3.6,1.8,3.6,3.96s-1.58,3.89-3.6,3.96h-3.82v21.6c0,2.52-2.3,4.46-5.04,4.46s-4.97-2.02-5.04-4.46v-21.6h-2.74c-2.02-.07-3.6-1.87-3.6-3.96s1.58-3.96,3.6-3.96h2.74Z"/><path class="cls-1" d="m141.58,0c3.38,0,6.12,2.52,6.12,5.83s-2.74,5.9-6.12,5.9-6.26-2.59-6.26-5.9,2.88-5.83,6.26-5.83Zm5.04,47.81c0,2.52-2.3,4.46-5.04,4.46s-4.97-2.02-5.04-4.46v-25.42c.07-2.45,2.38-4.46,5.04-4.46s5.04,1.94,5.04,4.46v25.42Z"/><path class="cls-1" d="m165.19,23.19c1.8-3.38,5.76-5.62,9.72-5.62,7.56,0,12.39,4.68,12.39,14.26v15.99c0,2.52-2.3,4.46-5.04,4.46s-4.97-2.02-5.04-4.46v-13.83c0-4.46-2.45-6.7-5.83-6.7s-6.19,1.73-6.19,6.84v13.68c0,2.52-2.3,4.46-5.04,4.46s-4.97-2.02-5.04-4.46v-25.42c.07-2.45,2.38-4.46,5.04-4.46s5.04,1.94,5.04,4.46v.79Z"/><path class="cls-1" d="m197.81,55.8c1.8-1.66,4.82-1.3,6.19.22,1.87,2.02,4.75,3.67,7.49,3.67,7.63,0,9.72-5.26,9.29-11.95v-.94c-2.16,3.82-6.26,5.76-10.44,5.76-8.57,0-16.35-6.34-16.35-17.5s7.78-17.43,16.35-17.43c2.16,0,7.2.94,10.08,5.4v-.65c.07-2.45,2.38-4.46,5.04-4.46s5.04,1.94,5.04,4.46v24.84c0,14.47-7.06,21.46-19.01,21.46-5.83,0-10.95-2.59-14.26-6.7-1.37-1.73-1.22-4.61.58-6.19Zm14.47-12.17c4.54,0,8.21-4.03,8.21-8.5s-3.67-8.5-8.21-8.5c-5.04,0-7.92,4.03-7.92,8.5s2.88,8.5,7.92,8.5Z"/><path class="cls-1" d="m264.84,40.18l-3.38,9.07c-.94,2.45-3.96,3.6-6.62,2.74-2.59-.86-4.03-4.1-3.17-6.55l14.33-38.6c1.15-3.02,3.46-4.9,7.13-4.9h.43c3.67,0,5.98,1.87,7.13,4.9l14.33,38.6c.86,2.45-.58,5.69-3.17,6.55-2.66.86-5.69-.29-6.62-2.74l-3.38-9.07h-16.99Zm13.54-9.15l-5.04-17.28-5.04,17.28h10.08Z"/><path class="cls-1" d="m300.91,40.4c2.23-1.01,4.32-.07,5.4,1.22,1.8,1.94,3.96,2.95,6.34,2.95,2.23,0,4.32-.36,4.32-2.09,0-1.44-.86-1.94-3.31-2.74l-3.82-1.37c-10.08-3.38-10.01-8.14-10.01-11.23,0-4.97,5.98-9.58,13.03-9.58,4.82,0,9.79,1.51,12.1,5.54,1.22,2.16.65,4.25-.86,5.11-2.23,1.3-4.32.79-6.41-.79-1.44-1.08-2.74-1.51-4.03-1.51-2.16,0-3.67.72-3.67,2.02,0,1.08.86,1.73,2.88,2.38l5.11,1.73c8.14,2.66,9.15,7.92,9.15,10.08,0,7.13-7.49,10.51-14.55,10.51-5.4,0-11.74-2.23-13.46-7.2-.72-2.09.14-4.32,1.8-5.04Z"/><path class="cls-1" d="m334.03,40.4c2.23-1.01,4.32-.07,5.4,1.22,1.8,1.94,3.96,2.95,6.34,2.95,2.23,0,4.32-.36,4.32-2.09,0-1.44-.86-1.94-3.31-2.74l-3.82-1.37c-10.08-3.38-10.01-8.14-10.01-11.23,0-4.97,5.98-9.58,13.03-9.58,4.82,0,9.79,1.51,12.1,5.54,1.22,2.16.65,4.25-.86,5.11-2.23,1.3-4.32.79-6.41-.79-1.44-1.08-2.74-1.51-4.03-1.51-2.16,0-3.67.72-3.67,2.02,0,1.08.86,1.73,2.88,2.38l5.11,1.73c8.14,2.66,9.15,7.92,9.15,10.08,0,7.13-7.49,10.51-14.55,10.51-5.4,0-11.74-2.23-13.46-7.2-.72-2.09.14-4.32,1.8-5.04Z"/><path class="cls-1" d="m371.9,0c3.38,0,6.12,2.52,6.12,5.83s-2.74,5.9-6.12,5.9-6.26-2.59-6.26-5.9,2.88-5.83,6.26-5.83Zm5.04,47.81c0,2.52-2.3,4.46-5.04,4.46s-4.97-2.02-5.04-4.46v-25.42c.07-2.45,2.38-4.46,5.04-4.46s5.04,1.94,5.04,4.46v25.42Z"/><path class="cls-1" d="m385.73,40.4c2.23-1.01,4.32-.07,5.4,1.22,1.8,1.94,3.96,2.95,6.34,2.95,2.23,0,4.32-.36,4.32-2.09,0-1.44-.86-1.94-3.31-2.74l-3.82-1.37c-10.08-3.38-10.01-8.14-10.01-11.23,0-4.97,5.98-9.58,13.03-9.58,4.82,0,9.79,1.51,12.1,5.54,1.22,2.16.65,4.25-.86,5.11-2.23,1.3-4.32.79-6.41-.79-1.44-1.08-2.74-1.51-4.03-1.51-2.16,0-3.67.72-3.67,2.02,0,1.08.86,1.73,2.88,2.38l5.11,1.73c8.14,2.66,9.15,7.92,9.15,10.08,0,7.13-7.49,10.51-14.55,10.51-5.4,0-11.74-2.23-13.46-7.2-.72-2.09.14-4.32,1.8-5.04Z"/><path class="cls-1" d="m421.51,18.29v-8.78c.07-2.45,2.38-4.46,5.04-4.46s5.04,1.94,5.04,4.46v8.78h3.82c2.02,0,3.6,1.8,3.6,3.96s-1.58,3.89-3.6,3.96h-3.82v21.6c0,2.52-2.3,4.46-5.04,4.46s-4.97-2.02-5.04-4.46v-21.6h-2.74c-2.02-.07-3.6-1.87-3.6-3.96s1.58-3.96,3.6-3.96h2.74Z"/><path class="cls-1" d="m468.24,22.39c.07-2.45,2.38-4.46,5.04-4.46s5.04,1.94,5.04,4.46v25.42c0,2.52-2.3,4.46-5.04,4.46s-4.97-2.02-5.04-4.46v-.65c-2.16,3.53-6.26,5.4-10.08,5.4-8.57,0-16.35-6.34-16.35-17.5s7.78-17.43,16.35-17.43c2.16,0,7.2.94,10.08,5.4v-.65Zm-8.14,21.24c4.54,0,8.21-4.03,8.21-8.5s-3.67-8.5-8.21-8.5c-5.04,0-7.92,4.03-7.92,8.5s2.88,8.5,7.92,8.5Z"/><path class="cls-1" d="m496.89,23.19c1.8-3.38,5.76-5.62,9.72-5.62,7.56,0,12.39,4.68,12.39,14.26v15.99c0,2.52-2.3,4.46-5.04,4.46s-4.97-2.02-5.04-4.46v-13.83c0-4.46-2.45-6.7-5.83-6.7s-6.19,1.73-6.19,6.84v13.68c0,2.52-2.3,4.46-5.04,4.46s-4.97-2.02-5.04-4.46v-25.42c.07-2.45,2.38-4.46,5.04-4.46s5.04,1.94,5.04,4.46v.79Z"/><path class="cls-1" d="m530.23,18.29v-8.78c.07-2.45,2.38-4.46,5.04-4.46s5.04,1.94,5.04,4.46v8.78h3.82c2.02,0,3.6,1.8,3.6,3.96s-1.58,3.89-3.6,3.96h-3.82v21.6c0,2.52-2.3,4.46-5.04,4.46s-4.97-2.02-5.04-4.46v-21.6h-2.74c-2.02-.07-3.6-1.87-3.6-3.96s1.58-3.96,3.6-3.96h2.74Z"/></svg>