<?xml version="1.0" encoding="UTF-8"?><svg id="Layer_1" xmlns="http://www.w3.org/2000/svg" viewBox="0 0 492.84 46.68"><path d="m27.6,1.8v8.4H8.7v10.02h16.38v8.4H8.7v17.34H0V1.8h27.6Z"/><path d="m35.85,7.41c.94-.82,2.01-1.23,3.21-1.23s2.2.41,3.12,1.23c.92.82,1.38,1.83,1.38,3.03s-.46,2.2-1.38,3c-.92.8-1.96,1.2-3.12,1.2s-2.27-.4-3.21-1.2c-.94-.8-1.41-1.8-1.41-3s.47-2.21,1.41-3.03Zm7.17,12.33v26.22h-8.4v-26.22h8.4Z"/><path d="m62.52,8.22v11.4h6.36v6.54h-6.36v19.8h-8.4v-19.8h-4.08v-6.54h4.08v-11.4h8.4Z"/><path d="m99.75,20.7c1.66,1.48,2.51,3.36,2.55,5.64v19.62h-8.4v-16.5c-.12-2.56-1.4-3.84-3.84-3.84-1.92,0-3.46.9-4.62,2.7-1.16,1.8-1.74,4.12-1.74,6.96v10.68h-8.4v-26.22h7.62l.6,4.2c.96-1.72,2.29-3.06,3.99-4.02,1.7-.96,3.71-1.44,6.03-1.44,2.48,0,4.55.74,6.21,2.22Z"/><path d="m129.24,37.8l3.72,6.24c-1.44.8-2.96,1.44-4.56,1.92-1.6.48-3.12.72-4.56.72-3.12,0-5.81-.59-8.07-1.77-2.26-1.18-3.97-2.84-5.13-4.98-1.16-2.14-1.74-4.59-1.74-7.35,0-2.56.67-4.92,2.01-7.08,1.34-2.16,3.17-3.87,5.49-5.13,2.32-1.26,4.86-1.89,7.62-1.89,3.76,0,6.85,1.1,9.27,3.3,2.42,2.2,3.99,5.34,4.71,9.42l-19.2,6.12c1.28,1.48,3.02,2.22,5.22,2.22,1.68,0,3.42-.58,5.22-1.74Zm-10.38-10.86c-1.12,1.28-1.68,3-1.68,5.16v.54l11.52-3.9c-.84-2.48-2.62-3.72-5.34-3.72-1.88,0-3.38.64-4.5,1.92Z"/><path d="m146.58,45.36c-1.88-.76-3.44-1.82-4.68-3.18l3.48-4.62c2.32,2.16,4.5,3.24,6.54,3.24,1.08,0,1.95-.17,2.61-.51.66-.34.99-.85.99-1.53,0-.8-.38-1.41-1.14-1.83-.76-.42-1.61-.77-2.55-1.05-.94-.28-1.57-.46-1.89-.54-2.28-.72-3.98-1.79-5.1-3.21-1.12-1.42-1.68-3.05-1.68-4.89,0-1.4.37-2.77,1.11-4.11.74-1.34,1.89-2.44,3.45-3.3,1.56-.86,3.5-1.29,5.82-1.29,2.16,0,4,.22,5.52.66,1.52.44,2.98,1.16,4.38,2.16l-3.18,4.92c-.8-.64-1.69-1.17-2.67-1.59-.98-.42-1.87-.63-2.67-.63-.96,0-1.74.2-2.34.6-.6.4-.9.88-.9,1.44-.04.84.31,1.47,1.05,1.89.74.42,1.89.85,3.45,1.29.24.08.49.16.75.24.26.08.53.16.81.24,4.12,1.36,6.18,3.84,6.18,7.44,0,1.68-.42,3.22-1.26,4.62-.84,1.4-2.11,2.53-3.81,3.39-1.7.86-3.77,1.29-6.21,1.29-2.16,0-4.18-.38-6.06-1.14Z"/><path d="m173.4,45.36c-1.88-.76-3.44-1.82-4.68-3.18l3.48-4.62c2.32,2.16,4.5,3.24,6.54,3.24,1.08,0,1.95-.17,2.61-.51.66-.34.99-.85.99-1.53,0-.8-.38-1.41-1.14-1.83-.76-.42-1.61-.77-2.55-1.05-.94-.28-1.57-.46-1.89-.54-2.28-.72-3.98-1.79-5.1-3.21-1.12-1.42-1.68-3.05-1.68-4.89,0-1.4.37-2.77,1.11-4.11.74-1.34,1.89-2.44,3.45-3.3,1.56-.86,3.5-1.29,5.82-1.29,2.16,0,4,.22,5.52.66,1.52.44,2.98,1.16,4.38,2.16l-3.18,4.92c-.8-.64-1.69-1.17-2.67-1.59-.98-.42-1.87-.63-2.67-.63-.96,0-1.74.2-2.34.6-.6.4-.9.88-.9,1.44-.04.84.31,1.47,1.05,1.89.74.42,1.89.85,3.45,1.29.24.08.49.16.75.24.26.08.53.16.81.24,4.12,1.36,6.18,3.84,6.18,7.44,0,1.68-.42,3.22-1.26,4.62-.84,1.4-2.11,2.53-3.81,3.39-1.7.86-3.77,1.29-6.21,1.29-2.16,0-4.18-.38-6.06-1.14Z"/><path d="m264.12,0v45.96h-8.7v-21.06l-14.4,20.46h-.12l-13.86-19.14v19.74h-8.4V0h.06l22.38,31.74L264,0h.12Z"/><path d="m273.99,25.32c1.26-2.12,3.04-3.79,5.34-5.01,2.3-1.22,4.91-1.83,7.83-1.83s5.49.61,7.71,1.83c2.22,1.22,3.93,2.89,5.13,5.01,1.2,2.12,1.8,4.52,1.8,7.2s-.6,5.1-1.8,7.26c-1.2,2.16-2.91,3.85-5.13,5.07s-4.83,1.83-7.83,1.83-5.51-.57-7.77-1.71c-2.26-1.14-4.02-2.77-5.28-4.89-1.26-2.12-1.89-4.64-1.89-7.56,0-2.68.63-5.08,1.89-7.2Zm8.37,12.45c1.2,1.38,2.72,2.07,4.56,2.07s3.47-.68,4.65-2.04c1.18-1.36,1.77-3.1,1.77-5.22s-.59-3.86-1.77-5.22c-1.18-1.36-2.73-2.04-4.65-2.04s-3.36.69-4.56,2.07c-1.2,1.38-1.8,3.11-1.8,5.19s.6,3.81,1.8,5.19Z"/><path d="m319.26,8.22v11.4h6.36v6.54h-6.36v19.8h-8.4v-19.8h-4.08v-6.54h4.08v-11.4h8.4Z"/><path d="m333.27,7.41c.94-.82,2.01-1.23,3.21-1.23s2.2.41,3.12,1.23c.92.82,1.38,1.83,1.38,3.03s-.46,2.2-1.38,3c-.92.8-1.96,1.2-3.12,1.2s-2.27-.4-3.21-1.2c-.94-.8-1.41-1.8-1.41-3s.47-2.21,1.41-3.03Zm7.17,12.33v26.22h-8.4v-26.22h8.4Z"/><path d="m376.2,19.74l-14.88,26.76h-.24l-15.72-26.76h9.96l6.12,12.48,5.4-12.48h9.36Z"/><path d="m408.12,19.74v26.22h-8.4v-3.24c-2.52,2.64-5.44,3.96-8.76,3.96-3.88,0-7.03-1.16-9.45-3.48-2.42-2.32-3.63-5.76-3.63-10.32,0-2.88.59-5.41,1.77-7.59,1.18-2.18,2.75-3.87,4.71-5.07,1.96-1.2,4.06-1.8,6.3-1.8s4.16.35,5.52,1.05c1.36.7,2.56,1.69,3.6,2.97l.54-2.7h7.8Zm-8.4,16.14v-6.42c-.48-1.28-1.31-2.3-2.49-3.06-1.18-.76-2.57-1.14-4.17-1.14-1.84,0-3.41.68-4.71,2.04-1.3,1.36-1.95,3.08-1.95,5.16,0,1.36.32,2.61.96,3.75s1.49,2.03,2.55,2.67c1.06.64,2.21.96,3.45.96,2.92,0,5.04-1.32,6.36-3.96Z"/><path d="m427.62,8.22v11.4h6.36v6.54h-6.36v19.8h-8.4v-19.8h-4.08v-6.54h4.08v-11.4h8.4Z"/><path d="m440.25,25.32c1.26-2.12,3.04-3.79,5.34-5.01,2.3-1.22,4.91-1.83,7.83-1.83s5.49.61,7.71,1.83c2.22,1.22,3.93,2.89,5.13,5.01,1.2,2.12,1.8,4.52,1.8,7.2s-.6,5.1-1.8,7.26c-1.2,2.16-2.91,3.85-5.13,5.07s-4.83,1.83-7.83,1.83-5.51-.57-7.77-1.71c-2.26-1.14-4.02-2.77-5.28-4.89-1.26-2.12-1.89-4.64-1.89-7.56,0-2.68.63-5.08,1.89-7.2Zm8.37,12.45c1.2,1.38,2.72,2.07,4.56,2.07s3.47-.68,4.65-2.04c1.18-1.36,1.77-3.1,1.77-5.22s-.59-3.86-1.77-5.22c-1.18-1.36-2.73-2.04-4.65-2.04s-3.36.69-4.56,2.07c-1.2,1.38-1.8,3.11-1.8,5.19s.6,3.81,1.8,5.19Z"/><path d="m485.85,21.96c1.26-1.12,2.55-1.99,3.87-2.61,1.32-.62,2.36-.93,3.12-.93l-.42,8.4c-.24-.04-.58-.06-1.02-.06-1.68,0-3.16.44-4.44,1.32-1.28.88-2.26,2.01-2.94,3.39-.68,1.38-1.02,2.79-1.02,4.23v10.26h-8.34v-26.22h7.56l.66,6c.72-1.4,1.71-2.66,2.97-3.78Z"/></svg>