<?xml version="1.0" encoding="utf-8"?>
<!-- Generator: Adobe Illustrator 27.4.1, SVG Export Plug-In . SVG Version: 6.00 Build 0)  -->
<svg version="1.1" id="Layer_1" xmlns="http://www.w3.org/2000/svg" xmlns:xlink="http://www.w3.org/1999/xlink" x="0px" y="0px"
	 viewBox="0 0 492.8 46.7" style="enable-background:new 0 0 492.8 46.7;" xml:space="preserve">
<style type="text/css">
	.st0{fill:#FF6600;}
</style>
<path class="st0" d="M27.6,1.8v8.4H8.7v10h16.4v8.4H8.7V46H0V1.8H27.6z"/>
<path class="st0" d="M35.8,7.4c0.9-0.8,2-1.2,3.2-1.2s2.2,0.4,3.1,1.2s1.4,1.8,1.4,3s-0.5,2.2-1.4,3c-0.9,0.8-2,1.2-3.1,1.2
	s-2.3-0.4-3.2-1.2s-1.4-1.8-1.4-3S34.9,8.2,35.8,7.4z M43,19.7V46h-8.4V19.7H43z"/>
<path class="st0" d="M62.5,8.2v11.4h6.4v6.5h-6.4V46h-8.4V26.2H50v-6.5h4.1V8.2C54.1,8.2,62.5,8.2,62.5,8.2z"/>
<path class="st0" d="M99.8,20.7c1.7,1.5,2.5,3.4,2.6,5.6V46h-8.4V29.5c-0.1-2.6-1.4-3.8-3.8-3.8c-1.9,0-3.5,0.9-4.6,2.7
	c-1.2,1.8-1.7,4.1-1.7,7V46h-8.4V19.7h7.6l0.6,4.2c1-1.7,2.3-3.1,4-4c1.7-1,3.7-1.4,6-1.4C96,18.5,98.1,19.2,99.8,20.7z"/>
<path class="st0" d="M129.2,37.8L133,44c-1.4,0.8-3,1.4-4.6,1.9c-1.6,0.5-3.1,0.7-4.6,0.7c-3.1,0-5.8-0.6-8.1-1.8s-4-2.8-5.1-5
	c-1.2-2.1-1.7-4.6-1.7-7.3c0-2.6,0.7-4.9,2-7.1c1.3-2.2,3.2-3.9,5.5-5.1c2.3-1.3,4.9-1.9,7.6-1.9c3.8,0,6.9,1.1,9.3,3.3
	s4,5.3,4.7,9.4l-19.2,6.1c1.3,1.5,3,2.2,5.2,2.2C125.7,39.5,127.4,39,129.2,37.8L129.2,37.8z M118.9,26.9c-1.1,1.3-1.7,3-1.7,5.2
	v0.5l11.5-3.9c-0.8-2.5-2.6-3.7-5.3-3.7C121.5,25,120,25.7,118.9,26.9z"/>
<path class="st0" d="M146.6,45.4c-1.9-0.8-3.4-1.8-4.7-3.2l3.5-4.6c2.3,2.2,4.5,3.2,6.5,3.2c1.1,0,1.9-0.2,2.6-0.5s1-0.8,1-1.5
	c0-0.8-0.4-1.4-1.1-1.8c-0.8-0.4-1.6-0.8-2.6-1s-1.6-0.5-1.9-0.5c-2.3-0.7-4-1.8-5.1-3.2c-1.1-1.4-1.7-3-1.7-4.9
	c0-1.4,0.4-2.8,1.1-4.1s1.9-2.4,3.4-3.3c1.6-0.9,3.5-1.3,5.8-1.3c2.2,0,4,0.2,5.5,0.7s3,1.2,4.4,2.2l-3.2,4.9
	c-0.8-0.6-1.7-1.2-2.7-1.6s-1.9-0.6-2.7-0.6c-1,0-1.7,0.2-2.3,0.6c-0.6,0.4-0.9,0.9-0.9,1.4c0,0.8,0.3,1.5,1.1,1.9s1.9,0.9,3.4,1.3
	c0.2,0.1,0.5,0.2,0.8,0.2s0.5,0.2,0.8,0.2c4.1,1.4,6.2,3.8,6.2,7.4c0,1.7-0.4,3.2-1.3,4.6c-0.8,1.4-2.1,2.5-3.8,3.4
	s-3.8,1.3-6.2,1.3C150.5,46.5,148.5,46.1,146.6,45.4L146.6,45.4z"/>
<path class="st0" d="M173.4,45.4c-1.9-0.8-3.4-1.8-4.7-3.2l3.5-4.6c2.3,2.2,4.5,3.2,6.5,3.2c1.1,0,1.9-0.2,2.6-0.5s1-0.8,1-1.5
	c0-0.8-0.4-1.4-1.1-1.8c-0.8-0.4-1.6-0.8-2.6-1s-1.6-0.5-1.9-0.5c-2.3-0.7-4-1.8-5.1-3.2c-1.1-1.4-1.7-3-1.7-4.9
	c0-1.4,0.4-2.8,1.1-4.1s1.9-2.4,3.4-3.3c1.6-0.9,3.5-1.3,5.8-1.3c2.2,0,4,0.2,5.5,0.7s3,1.2,4.4,2.2l-3.2,4.9
	c-0.8-0.6-1.7-1.2-2.7-1.6s-1.9-0.6-2.7-0.6c-1,0-1.7,0.2-2.3,0.6c-0.6,0.4-0.9,0.9-0.9,1.4c0,0.8,0.3,1.5,1.1,1.9s1.9,0.9,3.4,1.3
	c0.2,0.1,0.5,0.2,0.8,0.2s0.5,0.2,0.8,0.2c4.1,1.4,6.2,3.8,6.2,7.4c0,1.7-0.4,3.2-1.3,4.6c-0.8,1.4-2.1,2.5-3.8,3.4
	s-3.8,1.3-6.2,1.3C177.3,46.5,175.3,46.1,173.4,45.4L173.4,45.4z"/>
<path class="st0" d="M264.1,0v46h-8.7V24.9L241,45.4h-0.1L227,26.2V46h-8.4V0h0.1l22.4,31.7L264,0H264.1z"/>
<path class="st0" d="M274,25.3c1.3-2.1,3-3.8,5.3-5s4.9-1.8,7.8-1.8s5.5,0.6,7.7,1.8s3.9,2.9,5.1,5s1.8,4.5,1.8,7.2
	s-0.6,5.1-1.8,7.3c-1.2,2.2-2.9,3.8-5.1,5.1s-4.8,1.8-7.8,1.8s-5.5-0.6-7.8-1.7c-2.3-1.1-4-2.8-5.3-4.9s-1.9-4.6-1.9-7.6
	C272.1,29.8,272.7,27.4,274,25.3z M282.4,37.8c1.2,1.4,2.7,2.1,4.6,2.1s3.5-0.7,4.6-2s1.8-3.1,1.8-5.2s-0.6-3.9-1.8-5.2
	c-1.2-1.4-2.7-2-4.6-2s-3.4,0.7-4.6,2.1s-1.8,3.1-1.8,5.2S281.2,36.4,282.4,37.8z"/>
<path class="st0" d="M319.3,8.2v11.4h6.4v6.5h-6.4V46h-8.4V26.2h-4.1v-6.5h4.1V8.2C310.9,8.2,319.3,8.2,319.3,8.2z"/>
<path class="st0" d="M333.3,7.4c0.9-0.8,2-1.2,3.2-1.2s2.2,0.4,3.1,1.2c0.9,0.8,1.4,1.8,1.4,3s-0.5,2.2-1.4,3s-2,1.2-3.1,1.2
	s-2.3-0.4-3.2-1.2s-1.4-1.8-1.4-3S332.3,8.2,333.3,7.4z M340.4,19.7V46H332V19.7H340.4z"/>
<path class="st0" d="M376.2,19.7l-14.9,26.8h-0.2l-15.7-26.8h10l6.1,12.5l5.4-12.5L376.2,19.7L376.2,19.7z"/>
<path class="st0" d="M408.1,19.7V46h-8.4v-3.2c-2.5,2.6-5.4,4-8.8,4c-3.9,0-7-1.2-9.5-3.5s-3.6-5.8-3.6-10.3c0-2.9,0.6-5.4,1.8-7.6
	s2.8-3.9,4.7-5.1s4.1-1.8,6.3-1.8s4.2,0.4,5.5,1c1.4,0.7,2.6,1.7,3.6,3l0.5-2.7L408.1,19.7L408.1,19.7z M399.7,35.9v-6.4
	c-0.5-1.3-1.3-2.3-2.5-3.1s-2.6-1.1-4.2-1.1c-1.8,0-3.4,0.7-4.7,2s-2,3.1-2,5.2c0,1.4,0.3,2.6,1,3.8s1.5,2,2.5,2.7s2.2,1,3.5,1
	C396.3,39.8,398.4,38.5,399.7,35.9L399.7,35.9z"/>
<path class="st0" d="M427.6,8.2v11.4h6.4v6.5h-6.4V46h-8.4V26.2h-4.1v-6.5h4.1V8.2C419.2,8.2,427.6,8.2,427.6,8.2z"/>
<path class="st0" d="M440.2,25.3c1.3-2.1,3-3.8,5.3-5s4.9-1.8,7.8-1.8s5.5,0.6,7.7,1.8s3.9,2.9,5.1,5s1.8,4.5,1.8,7.2
	s-0.6,5.1-1.8,7.3c-1.2,2.2-2.9,3.8-5.1,5.1s-4.8,1.8-7.8,1.8s-5.5-0.6-7.8-1.7c-2.3-1.1-4-2.8-5.3-4.9s-1.9-4.6-1.9-7.6
	C438.4,29.8,439,27.4,440.2,25.3z M448.6,37.8c1.2,1.4,2.7,2.1,4.6,2.1s3.5-0.7,4.6-2s1.8-3.1,1.8-5.2s-0.6-3.9-1.8-5.2
	c-1.2-1.4-2.7-2-4.6-2s-3.4,0.7-4.6,2.1s-1.8,3.1-1.8,5.2S447.4,36.4,448.6,37.8z"/>
<path class="st0" d="M485.9,22c1.3-1.1,2.5-2,3.9-2.6s2.4-0.9,3.1-0.9l-0.4,8.4c-0.2,0-0.6-0.1-1-0.1c-1.7,0-3.2,0.4-4.4,1.3
	s-2.3,2-2.9,3.4c-0.7,1.4-1,2.8-1,4.2V46h-8.3V19.7h7.6l0.7,6C483.6,24.3,484.6,23.1,485.9,22z"/>
</svg>
