<?xml version="1.0" encoding="utf-8"?>
<!-- Generator: Adobe Illustrator 27.9.0, SVG Export Plug-In . SVG Version: 6.00 Build 0)  -->
<svg version="1.1" id="Layer_1" xmlns="http://www.w3.org/2000/svg" xmlns:xlink="http://www.w3.org/1999/xlink" x="0px" y="0px"
	 viewBox="0 0 337 47.5" style="enable-background:new 0 0 337 47.5;" xml:space="preserve">
<style type="text/css">
	.st0{fill:#715CC6;}
</style>
<g>
	<path class="st0" d="M65.8,2.7h6.3l11.2,19.4L94.4,2.7h6.2v35.2h-6V13.4L85.1,30h-3.8l-9.6-16.7v24.6h-5.9V2.7z"/>
	<path class="st0" d="M114.7,36.9l-10.2-24.4h6.6l6.7,17.1l6.2-17.1h6.2l-13.4,35h-6.2L114.7,36.9z"/>
	<path class="st0" d="M145.2,2.7h6.3l11.2,19.4l11.1-19.4h6.2v35.2h-6V13.4L164.5,30h-3.8l-9.6-16.7v24.6h-5.9
		C145.2,37.9,145.2,2.7,145.2,2.7z"/>
	<path class="st0" d="M185.1,25.3c0-7.7,5.9-13.3,13.3-13.3c7.4,0,13.3,5.6,13.3,13.3s-5.9,13.3-13.3,13.3S185.1,33,185.1,25.3z
		 M198.4,33c4.2,0,7.3-3.2,7.3-7.7c0-4.6-3.2-7.7-7.3-7.7s-7.3,3.2-7.3,7.7C191,29.8,194.2,33,198.4,33z"/>
	<path class="st0" d="M215,25.3c0-7.7,5.9-13.3,13.3-13.3s13.3,5.6,13.3,13.3s-5.9,13.3-13.3,13.3S215,33,215,25.3z M228.3,33
		c4.2,0,7.3-3.2,7.3-7.7c0-4.6-3.2-7.7-7.3-7.7c-4.2,0-7.3,3.2-7.3,7.7S224.2,33,228.3,33z"/>
	<path class="st0" d="M245,25.3c0-7.8,5.7-13.2,12.6-13.2c3,0,5.9,1.1,7.7,3c-0.1-1.8-0.1-3.7-0.1-5.7V0.9h6V38h-5.3v-3.1
		c-1.8,2.3-4.9,3.6-8.2,3.6C250.7,38.4,245,33,245,25.3z M258.4,33c4,0,7.2-2.8,7.2-7.7s-3.2-7.7-7.2-7.7c-4.3,0-7.4,3.1-7.4,7.7
		C250.9,29.8,254.1,33,258.4,33z"/>
</g>
</svg>
