<?xml version="1.0" encoding="UTF-8"?><svg id="Layer_1" xmlns="http://www.w3.org/2000/svg" viewBox="0 0 283.01 63.42"><defs><style>.cls-1{fill:#ea6e6e;}</style></defs><path class="cls-1" d="m0,50.91l1.3-3.16c2.2.94,4.62,1.41,7.24,1.41,3.07,0,5.79-.83,8.17-2.48,2.38-1.65,4.51-4.18,6.38-7.58.61-1.12,1.21-2.41,1.79-3.85.59-1.44,1.31-3.46,2.18-6.06.73-2.16,1.44-4.48,2.13-6.98.69-2.5,1.28-4.78,1.76-6.84.48-2.06.94-4.36,1.39-6.89l3.76-1.69-.25-.04-.7-.11c-5.32-.66-10.43-.98-15.33-.98-2.51,0-4.62.16-6.33.49-1.71.33-3.16.86-4.36,1.58-1.64,1.03-2.46,2.36-2.46,3.97,0,3.3,4.12,5.18,12.38,5.62l-2.39,2.5c-2.25-.14-4.21-.55-5.87-1.23-1.66-.68-2.95-1.58-3.85-2.71-.9-1.12-1.35-2.4-1.35-3.83,0-2.88,1.82-5.2,5.45-6.96,3.07-1.48,7.58-2.21,13.54-2.21,1.62,0,3.69.09,6.21.28,2.52.19,5.13.43,7.82.72,2.69.29,4.93.6,6.71.93l.63.11-1.58,3.16-.63-.11c-2.06-.37-4.46-.76-7.21-1.16l-.25-.04-.11.49-.11.49c-1.85,8.46-3.76,15.43-5.73,20.9-1.97,5.47-4.18,9.85-6.64,13.13-2.46,3.28-5.33,5.66-8.6,7.14s-7.13,2.21-11.58,2.21c-1.17,0-2.34-.08-3.52-.25Z"/><path class="cls-1" d="m81.67,47.71c-.07.02-.11.05-.11.07l-.28.14c-3.26,1.69-6.71,2.53-10.37,2.53-2.88,0-5.44-.52-7.68-1.55-2.24-1.03-3.96-2.5-5.17-4.39-1.21-1.9-1.81-4.1-1.81-6.61,0-5.7,3.77-10.69,11.32-14.98l.25-.14v-.21c0-2.53.39-5.01,1.16-7.44s1.79-4.41,3.06-5.96c2.3-2.79,4.82-4.18,7.56-4.18,1.48,0,2.68.43,3.6,1.28.93.86,1.39,1.92,1.39,3.18,0,2.84-2.12,5.61-6.36,8.33-.7.47-2.02,1.24-3.94,2.32-2.09,1.15-3.46,1.89-4.11,2.21.09,2.11.64,4.52,1.63,7.24,1,2.72,2.21,5.12,3.64,7.21,2.18,3.19,4.92,5.99,8.23,8.4,1.64-1.17,3.11-2.54,4.39-4.1,1.29-1.56,2.3-3.16,3.04-4.82s1.11-3.2,1.11-4.66-.39-2.71-1.18-3.64c-.79-.93-1.8-1.39-3.04-1.39-3.28,0-5.72,2.87-7.31,8.61l-1.83-2.71c.44-1.52,1.11-2.88,1.99-4.08s1.9-2.12,3.06-2.78c1.16-.66,2.36-.98,3.6-.98,1.12,0,2.14.28,3.06.84s1.63,1.35,2.16,2.36c.53,1.01.79,2.12.79,3.34s-.22,2.44-.67,3.74c-.45,1.3-1.05,2.58-1.83,3.85s-1.74,2.53-2.9,3.8-2.34,2.33-3.53,3.2l.18.11c2.39,1.5,4.8,2.25,7.24,2.25,1.88,0,3.47-.36,4.8-1.09,1.32-.73,2.67-1.96,4.03-3.69l.49.56c-2.79,4.24-6.42,6.36-10.9,6.36-3,0-5.92-.86-8.75-2.57Zm-1.09-.67c-3.59-2.34-6.52-5.56-8.79-9.65-2.27-4.09-3.59-8.54-3.94-13.34l-.04-.18c-5.25,3.35-7.88,7.43-7.88,12.23,0,3.59,1.25,6.57,3.76,8.95,2.51,2.38,5.65,3.57,9.42,3.57,2.6,0,5.09-.53,7.45-1.58Zm-10.41-25.7c3.35-1.78,5.88-3.34,7.59-4.68,1.29-.96,2.32-2.09,3.09-3.39s1.16-2.54,1.16-3.71c0-1.01-.31-1.79-.93-2.36-.62-.56-1.45-.84-2.48-.84-1.5,0-2.9.62-4.2,1.85s-2.34,2.88-3.11,4.96-1.16,4.29-1.16,6.66v.91l.04.6Z"/><path class="cls-1" d="m120.94,33.33l4.08-12.2c.8-.14,1.58-.21,2.36-.21.94,0,2.11.07,3.52.21,1.27.09,2.17.14,2.71.14.98,0,1.78-.16,2.37-.47s1.05-.8,1.35-1.46h.7l-1.69,4.85c-.61.14-1.41.21-2.39.21-1.1,0-2.18-.04-3.23-.11l-2.71-.21c-.3-.02-.74-.04-1.3-.04-.49,0-1.05.05-1.69.14l-2,5.8c.98-.33,1.98-.49,2.99-.49,1.66,0,3.18.4,4.55,1.2,1.37.8,2.45,1.88,3.23,3.25.79,1.37,1.18,2.9,1.18,4.59s-.3,3.13-.91,4.55c-.61,1.42-1.45,2.66-2.51,3.73s-2.32,1.91-3.76,2.53-2.95.93-4.52.93c-1.97,0-3.55-.46-4.75-1.39s-1.79-2.14-1.79-3.64c0-.91.24-1.68.72-2.3.48-.62,1.1-.93,1.85-.93-.26.63-.39,1.24-.39,1.83,0,1.5.54,2.77,1.63,3.8,1.09,1.03,2.47,1.55,4.13,1.55,1.52,0,2.92-.4,4.18-1.2,1.27-.8,2.27-1.89,3.01-3.27.74-1.38,1.11-2.85,1.11-4.39s-.33-2.81-.98-3.99c-.66-1.18-1.57-2.13-2.74-2.83-1.17-.7-2.43-1.05-3.76-1.05-1.2,0-2.44.36-3.73,1.09l-.81-.21Z"/><path class="cls-1" d="m165.73,5.77l3.62-1.69-.11.91c-.07.7-.13,1.28-.18,1.74-.05.46-.09.81-.14,1.07l-.42,2.81s-.05.33-.14.91c1.95-1.95,3.88-3.67,5.82-5.17,1.93-1.5,3.69-2.61,5.26-3.34,1.57-.73,3.01-1.09,4.32-1.09,1.38,0,2.48.47,3.29,1.41.81.94,1.21,2.23,1.21,3.87,0,1.85-.63,3.93-1.88,6.24-1.25,2.31-3.04,4.68-5.36,7.12-2.51,2.65-4.79,4.66-6.86,6.05.75-.05,1.17-.07,1.27-.07,2.53,0,4.61.75,6.22,2.25,1.62,1.5,2.43,3.45,2.43,5.84s-.69,4.75-2.07,7.07c-1.38,2.32-3.29,4.31-5.73,5.98-2.7,1.85-5.84,2.78-9.42,2.78-3,0-5.12-.59-6.36-1.76l1.72-2.25c.75.8,1.69,1.45,2.81,1.95,1.12.5,2.29.76,3.48.76,2.11,0,4.07-.64,5.89-1.92,1.82-1.28,3.27-2.98,4.36-5.1,1.09-2.12,1.63-4.39,1.63-6.8,0-1.52-.28-2.83-.83-3.92-.55-1.09-1.33-1.93-2.34-2.53-1.01-.6-2.19-.9-3.55-.9-.66,0-1.44.12-2.36.35l.35-1.72c2.09-1.2,4.12-2.74,6.12-4.62,1.99-1.89,3.67-3.86,5.03-5.92,1.8-2.72,2.71-5.2,2.71-7.45,0-1.36-.36-2.45-1.07-3.27-.72-.82-1.66-1.23-2.83-1.23-2.11,0-4.83,1.37-8.16,4.11-2.27,1.9-4.08,3.69-5.41,5.38l-.11.63c-.38,2.55-.91,5.33-1.6,8.31-.69,2.99-1.52,6.13-2.5,9.42-.97,3.29-1.94,6.29-2.9,8.98-1.12,3.14-2.21,5.47-3.27,6.98s-2.1,2.27-3.13,2.27c-1.59,0-2.39-1.34-2.39-4.01,0-1.78.33-4.07,1-6.87.67-2.8,1.51-5.48,2.51-8.03,2.41-6.16,5.39-11.29,8.93-15.36.21-1.38.42-3.02.63-4.92.23-2.3.4-4.04.49-5.24Zm-1.48,12.3c-1.78,2.18-3.49,4.84-5.12,7.98-1.63,3.14-2.95,6.34-3.96,9.6-.61,1.97-1.11,3.91-1.49,5.84-.39,1.92-.58,3.4-.58,4.43,0,1.48.36,2.21,1.09,2.21.52-.02,1.01-.39,1.48-1.11.47-.71,1.05-1.95,1.76-3.71.37-.94.81-2.12,1.3-3.55.49-1.43.94-2.81,1.35-4.13.41-1.32.86-2.88,1.34-4.66.48-1.78.84-3.16,1.07-4.15.84-3.49,1.43-6.41,1.76-8.75Z"/><path class="cls-1" d="m206.96,28.76l-3.3,12.87c-.35,1.41-.53,2.51-.53,3.3,0,.7.15,1.31.46,1.83.3.52.68.77,1.12.77.68,0,1.8-.83,3.38-2.5l.49.49-.39.46c-1.24,1.43-2.2,2.43-2.87,3.01s-1.25.86-1.74.86c-.75,0-1.4-.39-1.95-1.18-.55-.79-.83-1.69-.83-2.72,0-.75.28-2.45.84-5.1l.28-1.34c-.87,2.02-2.03,3.95-3.48,5.8-2.44,3.09-4.77,4.64-7,4.64-1.34,0-2.39-.48-3.16-1.44-.77-.96-1.16-2.25-1.16-3.87,0-2.2.63-4.51,1.88-6.93,1.25-2.41,2.81-4.4,4.68-5.96,1.86-1.56,3.67-2.34,5.43-2.34,1.85,0,3.23.68,4.15,2.04l.39-1.34,3.3-1.37Zm-4.04,4.5c-.28-.89-.76-1.59-1.42-2.09-.67-.5-1.44-.76-2.3-.76-1.03,0-2.12.47-3.27,1.42-1.15.95-2.2,2.27-3.16,3.96-.75,1.34-1.38,2.81-1.88,4.43-.5,1.62-.76,2.95-.76,4.01,0,1.2.23,2.13.69,2.81.46.68,1.11,1.02,1.95,1.02,1.08,0,2.2-.5,3.38-1.51,1.17-1.01,2.33-2.45,3.48-4.32.7-1.08,1.25-2.16,1.65-3.23.4-1.08.84-2.58,1.34-4.5l.32-1.23Z"/><path class="cls-1" d="m223.63,0l-9.56,41.59c.54-1.27,1.18-2.48,1.93-3.66.75-1.17,1.6-2.31,2.57-3.43.96-1.11,1.89-2.02,2.78-2.72,1.15-.91,2.3-1.59,3.46-2.04,1.16-.44,2.47-.7,3.92-.77l-.63,2.81c-.7-.14-1.23-.21-1.58-.21-2.77,0-5.34,1.39-7.73,4.18.96,2.58,1.98,4.9,3.06,6.96.61,1.2,1.14,2.15,1.6,2.87.46.72.88,1.24,1.27,1.56.39.33.77.49,1.14.49.89,0,2.02-.71,3.38-2.14l.28-.32.46.53c-2.37,2.86-4.09,4.29-5.17,4.29-.73,0-1.41-.32-2.04-.95s-1.37-1.72-2.21-3.27c-1.48-2.69-2.68-5.25-3.62-7.66-2.2,3.63-3.61,7.3-4.22,11l-2.29.74L219.83,1.79l3.8-1.79Z"/><path class="cls-1" d="m245.78,44.09l.63.53c-1.45,1.92-2.87,3.31-4.25,4.17s-2.87,1.28-4.46,1.28c-1.9,0-3.42-.63-4.57-1.9s-1.72-2.94-1.72-5.03.56-4.25,1.67-6.42c1.11-2.17,2.51-3.96,4.18-5.38,1.68-1.42,3.33-2.13,4.97-2.13.96,0,1.75.28,2.37.84s.93,1.29.93,2.18c0,1.81-.98,3.61-2.95,5.41-1.97,1.81-4.65,3.34-8.05,4.61-.02.19-.04.4-.04.63,0,1.62.45,2.94,1.34,3.96s2.04,1.53,3.45,1.53c1.1,0,2.17-.35,3.2-1.04,1.03-.69,2.13-1.78,3.3-3.25Zm-11.25-2.67c2.53-1.12,4.48-2.38,5.84-3.76.91-.94,1.65-1.95,2.21-3.02.56-1.08.84-2.05.84-2.92,0-1.1-.5-1.65-1.51-1.65-1.52,0-3.06,1.2-4.62,3.6-1.56,2.4-2.48,4.99-2.76,7.75Z"/><path class="cls-1" d="m248.84,39.55c2.02-2.44,3.36-4.71,4.04-6.82-1.9-1.05-2.85-2.57-2.85-4.54,0-.94.22-1.7.67-2.29.45-.59,1.01-.88,1.69-.88s1.28.32,1.72.97c.45.65.67,1.48.67,2.51,0,.73-.13,1.54-.39,2.43.63.16,1.21.25,1.72.25,1.45,0,2.65-.42,3.59-1.27h1.69l-.25.49c-1.69,3.09-3.08,6.13-4.17,9.12s-1.63,5.22-1.63,6.7c0,.54.14.99.42,1.35.28.36.62.54,1.02.54.96,0,2.51-1.02,4.64-3.06l.56.63c-.66.73-1.68,1.63-3.06,2.71-1.24.98-2.4,1.48-3.48,1.48-.91,0-1.63-.3-2.16-.91s-.79-1.44-.79-2.5c0-1.76.68-3.98,2.04-6.68.49-1.01,1.12-2.16,1.9-3.45.77-1.29,1.75-2.82,2.92-4.61l.35-.49c-.77.7-1.52,1.2-2.23,1.49-.71.29-1.53.44-2.44.44-.42,0-.87-.06-1.34-.18-.75,2.3-2.16,4.66-4.22,7.1l-.63-.56Zm4.82-8.93c.09-.59.14-1.08.14-1.48,0-.82-.13-1.46-.4-1.93-.27-.47-.62-.7-1.04-.7-.23,0-.44.11-.62.33-.18.22-.26.5-.26.83,0,1.1.73,2.09,2.18,2.95Z"/><path class="cls-1" d="m261.28,62.02l1.72-2.32c1.36,1.45,2.89,2.18,4.61,2.18,1.8,0,3.26-.72,4.36-2.14,1.1-1.43,2-3.77,2.71-7.03l1.62-7.28c-2.58,3.02-4.91,4.54-7,4.54-1.22,0-2.17-.38-2.87-1.12s-1.04-1.76-1.04-3.02c0-.84.11-1.77.32-2.78l2.39-12.62,3.41-1.44-3.41,14.17c-.28,1.15-.42,2-.42,2.57,0,.8.24,1.45.72,1.95.48.5,1.12.76,1.92.76.87,0,1.82-.38,2.87-1.14,1.04-.76,2.21-1.9,3.5-3.43l3.02-13.43,3.3-1.44-5.13,20.67c-.61,2.48-1.19,4.43-1.74,5.84s-1.19,2.58-1.92,3.52c-2.3,2.95-5.1,4.43-8.4,4.43-1.92,0-3.43-.47-4.54-1.41Z"/></svg>