<?xml version="1.0" encoding="UTF-8"?><svg id="Layer_1" xmlns="http://www.w3.org/2000/svg" viewBox="0 0 519.84 65.45"><defs><style>.cls-1{fill:#811693;}</style></defs><path class="cls-1" d="m81.15,2.09l-6.41,3.89-18.51,49.4h-3.74l-11.16-34.42-12.96,34.42h-3.74L5.69,5.98,0,2.09h30.17l-7.49,3.89,11.23,30.89,5.62-21.39-3.82-11.67,15.7-2.81,10.73,35.14,7.13-30.17-8.57-3.89h20.45Z"/><path class="cls-1" d="m72.86,35.71c0-10.3,8.06-18.51,19.8-18.51s20.45,7.2,20.45,18.51c0,10.51-6.7,18.94-20.38,18.94-10.37,0-19.87-7.34-19.87-18.94Zm30.89,12.67c0-6.05-12.1-28.59-18.43-28.59-1.8,0-2.88,1.3-2.88,3.53,0,7.06,12.46,28.73,18.36,28.73,1.94,0,2.95-1.22,2.95-3.67Z"/><path class="cls-1" d="m183.82,52.78v1.15h-20.88v-1.15h2.88v-21.67c0-5.62-.86-7.49-3.96-7.49-1.51,0-3.02.36-4.46,1.08.14,1.01.22,2.09.22,3.31v24.77h2.88v1.15h-20.16v-1.15h2.88v-21.67c0-5.62-.86-7.49-3.96-7.49-1.44,0-2.88.29-4.25.94v28.23h2.88v1.15h-20.88v-1.15h3.6v-26.28l-4.1-3.53,18.51-6.48v7.2c5.83-4.68,9.65-6.84,13.68-6.84,4.9,0,7.63,2.45,8.57,7.13,6.05-4.9,9.94-7.13,14.04-7.13,6.12,0,8.93,3.82,8.93,11.16v24.77h3.6Z"/><path class="cls-1" d="m219.96,47.45c-3.02,4.61-7.85,7.2-14.55,7.2-10.15,0-18.51-7.06-18.51-18.22,0-10.51,7.06-19.23,18.58-19.23,6.77,0,11.45,3.96,11.45,9.22,0,5.98-4.61,11.23-13.25,14.47,4.1,4.03,9.29,6.7,14.11,6.7.72,0,1.44-.07,2.09-.22l.07.07Zm-24.12-23.47c0,5.98,3.1,12.02,7.42,16.49,2.02-2.59,2.81-5.47,2.81-9.14,0-6.26-4.18-11.59-7.27-11.59-1.87,0-2.95,1.58-2.95,4.25Z"/><path class="cls-1" d="m266.69,52.78v1.15h-20.88v-1.15h2.88v-21.67c0-5.62-1.37-7.49-4.32-7.49-1.44,0-2.88.43-4.32,1.08v28.08h2.88v1.15h-20.88v-1.15h3.6v-26.28l-4.1-3.53,18.51-6.48v7.2c4.68-4.03,8.86-6.84,13.75-6.84,6.12,0,9.29,3.82,9.29,11.16v24.77h3.6Z"/><path class="cls-1" d="m277.92,13.9c-2.3,0-6.34-2.16-6.34-6.98,0-3.89,3.1-6.91,6.91-6.91s7.2,2.66,7.2,7.34c0,5.9-4.25,12.1-12.75,14.4,3.24-2.88,4.46-5.18,4.97-7.85Z"/><path class="cls-1" d="m290.45,52.78l2.23-11.74h.07l8.93,11.95c1.01.29,1.51.36,2.38.36,3.17,0,5.33-1.66,5.33-4.61,0-2.16-1.3-3.38-4.32-4.97l-4.75-2.52c-5.98-3.17-8.86-6.55-8.86-12.02,0-7.27,5.9-12.02,15.48-12.02,4.68,0,8.42.79,11.95,2.09l-2.81,11.38h-.07l-8.35-11.88c-.36-.14-.86-.22-1.22-.22-3.17,0-4.75,1.8-4.75,3.82,0,2.52,1.15,4.32,5.4,6.55l5.4,2.88c4.97,2.66,7.56,6.26,7.56,10.73,0,7.49-7.56,12.1-16.42,12.1-3.38,0-8.14-.36-13.18-1.87Z"/><path class="cls-1" d="m335.59,64.59v-.43h.86c5.83,0,8.21-2.81,8.21-14.11V5.98l-6.41-3.89h28.66l-6.41,3.89v23.26h.07v18.36c0,10.87-6.12,17.86-18.36,17.86-2.38,0-4.32-.22-6.62-.86Z"/><path class="cls-1" d="m401.04,47.45c-3.02,4.61-7.85,7.2-14.55,7.2-10.15,0-18.5-7.06-18.5-18.22,0-10.51,7.06-19.23,18.58-19.23,6.77,0,11.45,3.96,11.45,9.22,0,5.98-4.61,11.23-13.25,14.47,4.1,4.03,9.29,6.7,14.11,6.7.72,0,1.44-.07,2.09-.22l.07.07Zm-24.12-23.47c0,5.98,3.1,12.02,7.42,16.49,2.02-2.59,2.81-5.47,2.81-9.14,0-6.26-4.18-11.59-7.27-11.59-1.87,0-2.95,1.58-2.95,4.25Z"/><path class="cls-1" d="m439.85,52.78v1.15h-18v-4.1c-3.38,2.88-7.2,4.82-11.16,4.82-4.68,0-7.85-2.66-7.85-7.2,0-6.62,7.06-11.02,19.01-12.31,0-7.92-3.17-11.88-8.64-11.88-3.24,0-5.47.86-7.92,2.74l-.36-.36c4.9-5.47,10.23-8.42,17.43-8.42,9.07,0,13.9,5.18,13.9,15.63v19.95h3.6Zm-18-3.96v-12.75c-4.32,1.22-5.98,3.96-5.98,7.78,0,3.38,1.44,5.18,4.32,5.18.43,0,1.01-.07,1.66-.22Z"/><path class="cls-1" d="m487.15,52.78v1.15h-20.88v-1.15h2.88v-21.67c0-5.62-1.37-7.49-4.32-7.49-1.44,0-2.88.43-4.32,1.08v28.08h2.88v1.15h-20.88v-1.15h3.6v-26.28l-4.1-3.53,18.51-6.48v7.2c4.68-4.03,8.86-6.84,13.75-6.84,6.12,0,9.29,3.82,9.29,11.16v24.77h3.6Z"/><path class="cls-1" d="m490.24,52.78l2.23-11.74h.07l8.93,11.95c1.01.29,1.51.36,2.38.36,3.17,0,5.33-1.66,5.33-4.61,0-2.16-1.3-3.38-4.32-4.97l-4.75-2.52c-5.98-3.17-8.86-6.55-8.86-12.02,0-7.27,5.9-12.02,15.48-12.02,4.68,0,8.42.79,11.95,2.09l-2.81,11.38h-.07l-8.35-11.88c-.36-.14-.86-.22-1.22-.22-3.17,0-4.75,1.8-4.75,3.82,0,2.52,1.15,4.32,5.4,6.55l5.4,2.88c4.97,2.66,7.56,6.26,7.56,10.73,0,7.49-7.56,12.1-16.42,12.1-3.38,0-8.14-.36-13.18-1.87Z"/></svg>