<?xml version="1.0" encoding="UTF-8"?><svg id="Layer_1" xmlns="http://www.w3.org/2000/svg" viewBox="0 0 118.44 46.26"><defs><style>.cls-1{fill:#f36300;}</style></defs><path class="cls-1" d="m6.69,40.34c.36-.48,4.56-5.58,11.7-15.12,3.6-4.86,9.6-12.6,12.06-16.8,1.26-2.16,5.22.48,5.64,2.58-1.26,2-6.12,26.64-6.12,27.48.42-.66,5.7-8.52,17-22.62C54.83,5.96,61.97.26,64.6.02c1.38-.12,2,.42,2,1.56-2.46.12-10.49,8.22-17.93,17.46-8.82,10.92-17.28,22.92-18.36,25.38-.84,2.4-7.92-.66-7.08-2.64.9-2.16,2.52-12.42,5.28-24.9-10.74,14.88-20.1,26-21.18,28.5-.84,2.4-8.1-.66-7.26-2.58C1.63,39.08,9.85,6.68,8.07,3.8c.66-1.8,5.64-1.62,6.24,1.62,1.02,5.58-6.9,33.3-7.62,34.92Z"/><path class="cls-1" d="m66.27,19.7c2.1.12,4.44,1.26,4.32,4.62-.06,1.92-1.62,6.24-4.14,10.08,4.56-.48,9.6-8.52,10.26-9.42s2-.48,1.38.78c-.6,1-3.36,7-8,9.66-1.57.94-3.4,1.37-5.22,1.2-1.44,1.94-3.34,3.51-5.52,4.56-3.9,1.56-10-2.46-10.44-6.9-.66-6.72,5.28-17.1,11.4-17.82,2.16-.24,5.28,1.44,5.88,2.82.08.24.14.36.08.42Zm-8.76,5.22c-2.28,3.54-4,8.22-3.84,12.12.18,3.06,2.22,2,3.54,1,1.28-.95,2.44-2.03,3.48-3.24-.38-.36-.72-.76-1-1.2-1.26-2.03-1.56-4.51-.84-6.78.66-2.58,3.24-7,6.66-7.14-3.56-.58-5.93,2.06-8,5.24h0Zm4.68,8.1c2.46-3.18,4.5-7,4.8-10.32.18-1.86-2-1.44-3.72,1-2.04,2.9-2.88,7.1-1.08,9.32Z"/><path class="cls-1" d="m87.27,19.34c1.92.18,4.56,2,2.58,4.5-3,4-7,13.5-5.52,14s9.84-9.18,11.88-12.3c1-1.2,2-.54,1.56.72-1.44,3.24-7.14,10.5-10.74,13.26-2.46,1.86-7.74.18-8.22-3.3-.78-4.5,4-11.76,5.28-14,.6-1-.6-1.32-2.1-1.56-1.26,2.28-4.32,6.24-6.42,9.3-.26.53-.91.74-1.43.48-.44-.22-.68-.72-.57-1.2,1.56-2.16,4.56-6.72,5.82-9.06-.72-.18-1.26-.48-1.38-1-.66-1.92,2.1-7.26,3.48-7.8,1.62-.66,3.9,1.08,3.72,2.22-.62,1.96-1.48,3.84-2.58,5.58.02.16,1.95-.08,4.64.16Z"/><path class="cls-1" d="m89.37,40.1c.06-1.5,5.58-14.52,10-23.1,4.68-9.18,6.9-13.8,7.74-14.82,1.62-2,5.94-.72,5.82.78-.72.66-4.08,6.66-8.52,15.54-.9,1.86-2,4.2-3.18,6.72,4.26-3.48,9.9-7.44,12.18-7.56,1.38-.06,1.74,2.46.9,2.82-1.38-.06-7.26,3.42-11.94,6.84,1.08,2.64,7.2,10.2,10.38,11.28,1.47.75,3.27.29,4.2-1.08.78-.84,2-.3,1.26.78-1.92,2.94-3.9,4.5-6,4.44-2.28-.06-6.3-2.22-10.32-7.08-1.33-1.59-2.32-3.42-2.94-5.4-2.46,5.64-4.62,10.8-4.62,11.52-1.24,1.2-5.02.36-4.96-1.68Z"/></svg>