<?xml version="1.0" encoding="UTF-8"?><svg id="Layer_1" xmlns="http://www.w3.org/2000/svg" viewBox="0 0 709.19 58.46"><path d="m71.21,7.06l-12.17,50.9h-15.26l-8.14-34.06-8.21,34.06h-15.26L0,7.06h13.39l6.55,36.86L28.87,7.06h13.46l8.93,36.86,6.62-36.86h13.32Z"/><path d="m107.17,19.76c3.14,1.66,5.62,4.04,7.42,7.16,1.8,3.12,2.7,6.77,2.7,10.94s-.9,7.82-2.7,10.94c-1.8,3.12-4.27,5.51-7.42,7.16-3.14,1.66-6.71,2.48-10.69,2.48s-7.56-.83-10.73-2.48c-3.17-1.66-5.65-4.04-7.45-7.16-1.8-3.12-2.7-6.77-2.7-10.94s.9-7.82,2.7-10.94c1.8-3.12,4.28-5.51,7.45-7.16,3.17-1.66,6.74-2.48,10.73-2.48s7.55.83,10.69,2.48Zm-16.63,10.73c-1.61,1.7-2.41,4.16-2.41,7.38s.8,5.66,2.41,7.34c1.61,1.68,3.59,2.52,5.94,2.52s4.32-.84,5.9-2.52c1.58-1.68,2.38-4.13,2.38-7.34s-.79-5.68-2.38-7.38c-1.58-1.7-3.55-2.56-5.9-2.56s-4.33.85-5.94,2.56Z"/><path d="m141.95,19.51c2.42-1.44,5.05-2.16,7.88-2.16v13.18h-3.53c-3.26,0-5.8.7-7.6,2.09-1.8,1.39-2.7,3.74-2.7,7.06v18.29h-12.31V17.78h12.31v7.56c1.54-2.45,3.52-4.39,5.94-5.83Z"/><path d="m167.33,4.68v53.28h-12.31V4.68h12.31Z"/><path d="m199.01,19.37c2.21,1.39,3.82,3.29,4.82,5.69V4.68h12.31v53.28h-12.31v-7.27c-1.01,2.4-2.62,4.3-4.82,5.69-2.21,1.39-4.85,2.09-7.92,2.09-3.31,0-6.28-.83-8.89-2.48-2.62-1.66-4.68-4.04-6.19-7.16-1.51-3.12-2.27-6.77-2.27-10.94s.76-7.88,2.27-10.98c1.51-3.1,3.58-5.47,6.19-7.13,2.62-1.66,5.58-2.48,8.89-2.48,3.07,0,5.71.7,7.92,2.09Zm-10.33,11.3c-1.61,1.73-2.41,4.13-2.41,7.2s.8,5.47,2.41,7.2,3.73,2.59,6.37,2.59,4.72-.89,6.37-2.66c1.66-1.78,2.48-4.15,2.48-7.13s-.83-5.41-2.48-7.16c-1.66-1.75-3.78-2.63-6.37-2.63s-4.76.86-6.37,2.59Z"/><path d="m308.23,7.06l-12.17,50.9h-15.26l-8.14-34.06-8.21,34.06h-15.26l-12.17-50.9h13.39l6.55,36.86,8.93-36.86h13.46l8.93,36.86,6.62-36.86h13.32Z"/><path d="m315.57,1.84c1.34-1.22,3.12-1.84,5.33-1.84s3.98.61,5.33,1.84,2.02,2.77,2.02,4.64-.67,3.35-2.02,4.57c-1.34,1.22-3.12,1.84-5.33,1.84s-3.99-.61-5.33-1.84c-1.34-1.22-2.02-2.75-2.02-4.57s.67-3.42,2.02-4.64Zm11.45,15.95v40.18h-12.31V17.78h12.31Z"/><path d="m347.83,4.68v53.28h-12.31V4.68h12.31Z"/><path d="m379.51,19.37c2.21,1.39,3.82,3.29,4.82,5.69V4.68h12.31v53.28h-12.31v-7.27c-1.01,2.4-2.62,4.3-4.82,5.69-2.21,1.39-4.85,2.09-7.92,2.09-3.31,0-6.28-.83-8.89-2.48-2.62-1.66-4.68-4.04-6.19-7.16-1.51-3.12-2.27-6.77-2.27-10.94s.76-7.88,2.27-10.98c1.51-3.1,3.58-5.47,6.19-7.13,2.62-1.66,5.58-2.48,8.89-2.48,3.07,0,5.71.7,7.92,2.09Zm-10.33,11.3c-1.61,1.73-2.41,4.13-2.41,7.2s.8,5.47,2.41,7.2,3.73,2.59,6.37,2.59,4.72-.89,6.37-2.66c1.66-1.78,2.48-4.15,2.48-7.13s-.83-5.41-2.48-7.16c-1.66-1.75-3.78-2.63-6.37-2.63s-4.76.86-6.37,2.59Z"/><path d="m417.45,4.68v53.28h-12.31V4.68h12.31Z"/><path d="m426.81,1.84c1.34-1.22,3.12-1.84,5.33-1.84s3.98.61,5.33,1.84,2.02,2.77,2.02,4.64-.67,3.35-2.02,4.57c-1.34,1.22-3.12,1.84-5.33,1.84s-3.99-.61-5.33-1.84c-1.34-1.22-2.02-2.75-2.02-4.57s.67-3.42,2.02-4.64Zm11.45,15.95v40.18h-12.31V17.78h12.31Z"/><path d="m466.48,12.31c-2.02,0-3.48.43-4.39,1.3-.91.86-1.42,2.26-1.51,4.18h7.27v10.37h-7.27v29.81h-12.31v-29.81h-4.82v-10.37h4.82v-.43c0-4.99,1.45-8.84,4.36-11.56,2.9-2.71,7.12-4.07,12.64-4.07,1.15,0,2.02.02,2.59.07v10.58l-1.37-.07Z"/><path d="m511.05,40.1h-27.86c.14,3.02.91,5.2,2.3,6.52,1.39,1.32,3.17,1.98,5.33,1.98,1.82,0,3.33-.46,4.54-1.37,1.2-.91,1.99-2.09,2.38-3.53h13.03c-.53,2.83-1.68,5.36-3.46,7.6-1.78,2.23-4.03,3.98-6.77,5.26-2.74,1.27-5.79,1.91-9.14,1.91-3.94,0-7.43-.83-10.48-2.48-3.05-1.66-5.44-4.04-7.16-7.16-1.73-3.12-2.59-6.77-2.59-10.94s.85-7.88,2.56-10.98c1.7-3.1,4.09-5.47,7.16-7.13,3.07-1.66,6.58-2.48,10.51-2.48s7.49.82,10.51,2.45c3.02,1.63,5.36,3.92,7.02,6.88s2.48,6.35,2.48,10.19c0,1.01-.12,2.11-.36,3.31Zm-14.22-11.12c-1.46-1.32-3.28-1.98-5.44-1.98s-4.13.67-5.62,2.02c-1.49,1.34-2.33,3.31-2.52,5.9h15.7c.05-2.64-.66-4.62-2.12-5.94Z"/><path d="m565.41,7.06v9.79h-20.88v11.16h16.13v9.36h-16.13v20.59h-12.31V7.06h33.19Z"/><path d="m611.7,17.78v40.18h-12.38v-7.27c-1.15,2.35-2.87,4.22-5.15,5.62-2.28,1.39-4.93,2.09-7.96,2.09-4.61,0-8.27-1.54-10.98-4.61-2.71-3.07-4.07-7.3-4.07-12.67v-23.33h12.24v21.82c0,2.74.71,4.86,2.12,6.37,1.42,1.51,3.32,2.27,5.72,2.27s4.46-.79,5.9-2.38c1.44-1.58,2.16-3.84,2.16-6.77v-21.31h12.38Z"/><path d="m656.67,21.96c2.71,3.07,4.07,7.3,4.07,12.67v23.33h-12.31v-21.89c0-2.69-.71-4.79-2.12-6.3s-3.3-2.27-5.65-2.27c-2.5,0-4.48.79-5.94,2.38-1.46,1.58-2.2,3.84-2.2,6.77v21.31h-12.31V17.78h12.31v7.34c1.15-2.4,2.87-4.3,5.15-5.69,2.28-1.39,4.96-2.09,8.03-2.09,4.61,0,8.27,1.54,10.98,4.61Z"/><path d="m692.05,19.37c2.21,1.39,3.82,3.29,4.82,5.69V4.68h12.31v53.28h-12.31v-7.27c-1.01,2.4-2.62,4.3-4.82,5.69-2.21,1.39-4.85,2.09-7.92,2.09-3.31,0-6.28-.83-8.89-2.48-2.62-1.66-4.68-4.04-6.19-7.16-1.51-3.12-2.27-6.77-2.27-10.94s.76-7.88,2.27-10.98c1.51-3.1,3.58-5.47,6.19-7.13,2.62-1.66,5.58-2.48,8.89-2.48,3.07,0,5.71.7,7.92,2.09Zm-10.33,11.3c-1.61,1.73-2.41,4.13-2.41,7.2s.8,5.47,2.41,7.2,3.73,2.59,6.37,2.59,4.72-.89,6.37-2.66c1.66-1.78,2.48-4.15,2.48-7.13s-.83-5.41-2.48-7.16c-1.66-1.75-3.78-2.63-6.37-2.63s-4.76.86-6.37,2.59Z"/></svg>